<?xml version="1.0" encoding="UTF-8"?><svg id="Graphic_Element" xmlns="http://www.w3.org/2000/svg" viewBox="0 0 1200 1200"><path d="M1132.28,587.4l2.24,3.78,1.46-4.96c-.31-1.5-2.57-1.92-3.7,1.18Z" style="fill:#222;"/><path d="M1129.39,590.63c-4.52,2.44-7.12,7.17-7.61,13.26-1.29.69-1.61-.8-2.09-1.36-.18,4.24.58,9.65,4.77,9.03-1.41-5.04.35-5.16-1.54-10.77,1.13-3.1,3.7-4.51,4.66-3.39-.31-1.47,3.08-4.13,1.81-6.77Z" style="fill:#222;"/><path d="M936.49,646.6c.06-.6-.02-1.31-.2-2.08l.2,2.08Z" style="fill:#222;"/><path d="M874.32,455.69c.76,1.36,1.34,1.8,1.69,1.73-.81-1.21-1.55-2.18-1.69-1.73Z" style="fill:#222;"/><path d="M859.72,422.82c.4.69.74,1.28,1.1,1.9-.2-.88-.55-1.67-1.1-1.9Z" style="fill:#222;"/><path d="M936.28,644.52l-.47-5.37c-1.27,0-.07,2.87.47,5.37Z" style="fill:#222;"/><path d="M1106.98,645.73c.37-1.07.5-2.04.5-3-.29.88-.59,1.72-.94,2.57.16.14.29.26.43.43Z" style="fill:#222;"/><path d="M978.15,720.08c-.95-.33-1.92-.66-2.89-1.03l.96,1.11c.6.05,1.25.02,1.93-.08Z" style="fill:#222;"/><path d="M1023.03,730.29c-1.17.56,0,3.54.18,5,.08-1.49.61-2.58,1.5-3.39-.3-.52-.83-1.04-1.69-1.6Z" style="fill:#222;"/><path d="M1088.89,651.47c.06-.2.12-.39.15-.54l-.15.54Z" style="fill:#222;"/><path d="M1088.52,652.79l.37-1.32c-.13.43-.29.92-.37,1.32Z" style="fill:#222;"/><path d="M953.99,678.41c-.37.16-.62.52-.81.99.39-.29.67-.67.81-.99Z" style="fill:#222;"/><path d="M145.89,297.22c.23.04.37-.05.56-.05-.35-.37-.59-.47-.56.05Z" style="fill:#222;"/><path d="M157.67,218.57l.21,1.07c.6.1,1.2.21,1.78.19l-1.99-1.26Z" style="fill:#222;"/><path d="M792.45,392.43c.17-.03.23-.05.39-.09,2.04-1.2.83-.66-.39.09Z" style="fill:#222;"/><path d="M583.57,920.48c-.3-1.79-1.2-2.92-4.2-.4,2.95-1.62,2.21.92,1.7,3.21-.5,2.28-.78,4.32,3.27,1.47-.75-.02-.47-2.49-.77-4.28Z" style="fill:#222;"/><path d="M1105.79,647.06c-.4.82-.82,1.64-1.28,2.44.69-1.05,1.08-1.8,1.28-2.44Z" style="fill:#222;"/><path d="M722.91,524.8c-.32-.05-.8.15-1.75.98.62-.12,1.19-.54,1.75-.98Z" style="fill:#222;"/><path d="M764.67,426.07c-.64.71-1.3,1.41-1.9,2.13.82-.8,1.43-1.49,1.9-2.13Z" style="fill:#222;"/><path d="M708.86,580.96c-.37.64-.66,1.24-.77,2.58.21-.13.36-.27.54-.46-.16-.58-.15-1.26.23-2.12Z" style="fill:#222;"/><path d="M708.86,580.96c.18-.31.38-.63.59-1.05-.26.38-.44.73-.59,1.05Z" style="fill:#222;"/><path d="M693.08,634.91c.32-.22.61-.56.91-.83.11-.56.24-1.21.36-1.79l-1.27,2.62Z" style="fill:#222;"/><path d="M172.84,468.14c-2.06,1.29-4.34-6.93-2.33,3.15.65-1.41,1.48-2.36,2.33-3.15Z" style="fill:#222;"/><path d="M1105.4,644.91c.54.68.66,1.3.39,2.15.28-.6.53-1.19.76-1.77-.34-.37-.71-.61-1.15-.39Z" style="fill:#222;"/><path d="M732.71,589.3l-3.06,8.59c1.02-2.35,2.13-5.47,3.06-8.59Z" style="fill:#222;"/><path d="M285.06,868.91l-1.18-1.82c.24.79.63,1.45,1.18,1.82Z" style="fill:#222;"/><path d="M722.39,623.93c-1.53,1.24-2.65,2.71-3.56,4.3.13.43.2.9.48,1.25l3.08-5.54Z" style="fill:#222;"/><path d="M797.8,391.9c1.17-.39,2.23-.81,3.26-1.17-1.44.36-2.47.8-3.26,1.17Z" style="fill:#222;"/><path d="M244.42,682.11c.02.2.04.41.05.63,0-.23-.03-.44-.05-.63Z" style="fill:#222;"/><path d="M184.24,432.66c.07-.44.13-.95.21-1.58-.09.54-.15,1.05-.21,1.58Z" style="fill:#222;"/><path d="M763.46,431.98c.05-.14.09-.29.13-.43-.05.15-.1.29-.13.43Z" style="fill:#222;"/><path d="M708.71,589.86s.08.1.2.2c-.05-.1-.12-.18-.2-.2Z" style="fill:#222;"/><path d="M783.93,433.1s0,0,0,.01h.01s0,0,0-.01Z" style="fill:#222;"/><path d="M229.77,627.42s-.03.01-.05.02c.03.05.05.03.05-.02Z" style="fill:#222;"/><path d="M153.38,352.25c0-.15,0-.29,0-.45-.03.15-.02.3,0,.45Z" style="fill:#222;"/><path d="M783.38,436.22c.7-1.11,1.74-2.26,2.37-3.22.64-.95.85-1.78-.14-2.39-.36.81-.73,1.59-1.08,2.41-.22.06-.41.09-.59.09.34.33-.09,1.79-.56,3.11Z" style="fill:#222;"/><path d="M763.94,429.66c-.04.67-.17,1.29-.36,1.89.45-1.29,1.39-2.72.36-1.89Z" style="fill:#222;"/><path d="M295.31,895.53c-.13-.14-.27-.29-.4-.42.14.15.27.28.4.42Z" style="fill:#222;"/><path d="M710.28,665.09c.03-.36.06-.86.07-1.32-.07.51-.1.96-.07,1.32Z" style="fill:#222;"/><path d="M296.44,896.78c-.32-.38-.69-.79-1.13-1.25.38.41.76.83,1.13,1.25Z" style="fill:#222;"/><path d="M216.25,576.92c.01-.06.03-.1.04-.16-.02.02-.04.07-.04.16Z" style="fill:#222;"/><path d="M1114.78,616.77l.76-.84c-.27.1-.54.35-.76.84Z" style="fill:#222;"/><path d="M818.56,415.24c-.19-.06-.38-.11-.58-.18.23.09.42.14.58.18Z" style="fill:#222;"/><path d="M1115.54,615.94c.96-.34,2.05,1.36,1.79,2.78-.52,6.09-4.72,6.69-5.85,6.46l1.32-4.01c-7.68.76-6.91,15.25-11.24,22.46l-2.47-5.3-.66,9.41c-1.95,1.02-4.84.87-3.48-3.1-4.9,4.16-1.07,5.46-5.82,8.74-.63.3-.7-.03-.61-.58l-1.61,5.81c-.31-1.48-3.38-.73-1.03-3.57-3.79,3.97-4.94,8.15-5.93,11.49-.96,3.34-1.66,5.93-4.18,6.74l.18-.9c-2.91,6.65-2.42,7.36-1.34,7.89,1.03.51,2.65.79,1.48,6.54-3.69.63-7.41,1.18-11.09,1.67l2.12,3.07c-.93,1.18-2.78,3.49-3.62,2.27-1.17,5.91,1.79.06,1.8,3.98-3.34,2.09-5.89,6.34-8.45,9.76-2.53,3.43-5.01,6.04-7.62,4.87.34,3.66,5.96-3.96,2.42,3.09-2.94-1.06-4.19.72-5.55,3.19-1.37,2.43-2.94,5.6-6.26,6.82-.3-1.78.88-3.43,1.32-4.34.46-.91.18-1.01-3,.23.2,1.57-.32,2.85-1.26,3.93-.98,1.02-2.33,1.93-3.85,2.6-3.02,1.47-6.48,2.24-8.33,3.99.99,1.77-1.18,3.73-4.66,5.42-1.73.87-3.78,1.57-5.88,2.25-2.12.6-4.28,1.18-6.36,1.69.05-.18-.16-.32-.58-.43-.42-.14-1.04-.27-1.81-.39-.77-.11-1.69-.33-2.7-.5-1-.27-2.11-.48-3.24-.88-2.27-.72-4.66-1.77-6.8-3.08-2.13-1.33-4-2.83-5.34-4.19l.57-.45c-1.74,1.36-4.21.62-6.82-1.01-2.59-1.67-5.19-4.28-7.58-6.35,2.02-1.45,3.48-1.23,6.48.26-1.29-1.3-2.56-2.65-3.77-4.08-.94-.07-1.84-.33-2.82-.93-.99-.59-2.09-1.49-3.41-2.89l3.34-.7c-2.36-2.93-5.27-5.62-8.03-8.87-2.75-3.25-5.34-7.06-6.75-12.07-1.42.4-2.25,3.13-3.56,4.71-1.29,1.56-3.15,1.97-6.55-2.64,1.21-1.08,3.42-2.61,5.28-.32-.6-.75-2.68-2.44-2.91-4.46,1.42.96,2.88,1.87,4.3,2.78-1.07-4.73-3.08-1.23-4.5-4.77,2.04-.89.24-3.21,2.07-3.46.6.78.57,3.36,1.98,4.28-1.48-3.99-2.39-9.19-1.48-11.41-1.01.84-2.75,1.2-4.25-1.55-3.22-7.38,1.4-3.56.74-8.31-2.17-1.22-2.47-6.58-5.64-5.54-.81-2.22.51-3.17,1.05-4.33-1.41-1.7-3.13-6.25-4.66-9.71-1.55-3.45-2.94-5.81-3.9-3.01l.11,1.1c-.13-.17-.21-.4-.35-.61-7.27-12.18-7.02-28.05-12.6-40.74l1.06-.32c-3.74-7.45-6.36-17.22-10.44-22.08-.75-2.32.17-6.1,1.75-5.52-2.73-5.74-4.14-6.02-5.19-15.25,3.79,5.42.96-2.61,3.35,5.73-1.6-8.09-.48-10.41-6.07-17.82,3.63,1.96,1.51-6.99-.49-10.42l-.17,6.1c-1.74-4.03-2.68-7.75-3.64-11.53l4.21.82c-.43-8.68-4.54-15.3-8.3-21.48-3.7-6.16-6.87-12.02-5.34-19.34-3.92-3.38,1.2,9.28-2.99,6.48-1.97-7.47.39-16.94-.47-19.28-.87-5.43-3.08-7.33-5.37-9.21-2.3-1.89-4.68-3.76-6.22-9.25-.68,1.88-3.39,4.43-7.9-2.66-2.77-7.23.94-11.17,4.1-7.07.93,1.68.91,2.7.47,2.82,1.51,2.13,3.4,5,3.44,1.52l-1.65-.4c-.18-2.09-1.49-5.62-2.44-8.45-.94-2.83-1.49-4.97.1-4.3-3.46-4.19-3.28-2.14-2.26,1.26-1.4-4.16-3.14-7.33-5.08-10.44-2.2-3.54-4.54-7.02-7.3-11.88.44,1.87.09,4.07-.91,2.66-4.05-6.98-5.93-7.88-7.29-8.16-.7-.13-1.37-.09-2.33-.47-.99-.38-2.17-1.26-4.21-3.04-1.44-2.9-.27-3.39.23-3.96.24-.29.29-.59-.32-1.23-.63-.62-1.84-1.65-4.35-3.1-1.11-1.39-1.66-2.28-1.76-2.86-.1-.59.26-.86.87-.94,1.25-.18,3.4.56,4.88,1.08-1.27-.62-2.41-1.33-3.55-2.01s-2.21-1.42-3.22-2.18c-1.14-.78-2.23-1.59-3.28-2.42-.27-.2-.51-.42-.79-.62-.29-.19-.57-.38-.86-.56-.57-.38-1.13-.76-1.68-1.13-2.22-1.59-4.29-2.79-6.27-3.97-.97-.6-2.04-1.01-3.01-1.44-.99-.41-1.93-.79-2.86-1.03,1.19.06,2.35.19,3.54.31,1.19.12,2.39.24,3.5.49-.51-.1-1.01-.2-1.49-.29-.51-.08-1-.16-1.49-.24-.97-.16-1.89-.34-2.79-.52-.88-.21-1.81-.31-2.7-.44-.9-.13-1.79-.26-2.68-.38,1.27,1.07,2.47,2.15,3.58,3.23-1.95-.53-3.77-.97-5.13-1.25-1.36-.27-2.22-.58-2.17-1.13-2.19.81-1.33,1.95-1.08,3.15.14.6.13,1.22-.37,1.82-.5.57-1.51,1.26-3.31,1.99-.61-.11-1.32-.21-2.06-.14-.74.07-1.53.19-2.33.35-1.64.25-3.24.94-4.8,1.43-1.54.53-2.9,1.14-4.14,1.34-1.21.25-2.21.26-2.99-.36.89-.36,1.62-.71,2.31-.96.69-.25,1.26-.47,1.74-.67.96-.4,1.53-.72,1.84-.99.66-.5.23-.89-.32-1.31-.54-.41-1.17-.8-.88-1.47.14-.34.57-.69,1.38-1.13.16-.08.35-.17.54-.26-.39.13-.79.25-1.2.37-1.64.5-3.36,1.12-5.33,1.68-.71-.11.2-.91,1.18-1.51-.52.11-1.01.22-1.48.32-.46.12-.87.26-1.27.39-.8.26-1.5.53-2.13.79-1.28.51-2.11,1.09-2.77,1.62-1.29,1.08-1.79,2.05-2.1,3.15-.62,2.22-1.25,4.53-6.4,9.3-.04-1.34-1.28-1.48-2.73-.98-1.43.49-2.94,1.64-3.6,2.64,2.01-2.1,3.07-2,3.33-.79.13.6.07,1.48-.17,2.49-.25,1.01-.63,2.17-1.13,3.36-1.72,1.36-2.82,2.59-3.61,3.66-.81,1.07-1.26,2-1.59,2.86-.68,1.71-.9,3.1-2.15,4.84l1.67-1.83,1.74-1.79c.63,2.52-1.93,5.66-4.27,10.76-.49-.12-.52-.63-.36-1.23-.88,2.43-2.84,4.42-4.95,6.62-2.71,2.85-5.68,6.04-6.39,10.45-2.9,3.07-3.59-1.22-5.87,1.65-.78,5-2.37,7.15-4.06,9.4-1.66,2.24-3.44,4.55-4.12,9.72,1.76-.93,2.53-1.56,2.86-1.02.34.54.23,2.25.3,6.11.62-2.79,1.23-5.49,1.9-8.18.66-2.7,1.36-5.4,2.12-8.1-.14,3.8-.17,7.57-.14,11.31,1.7-4.63,2.14-10.4,3.73-13,.1,5.51-.29,4.75,2.66,3.41-6.28,4.78-2.68,13.28-7.52,19.69l-6.26-2.29c-3.16,5.05-3.9,10.22-4.61,15.83-.68,5.59-1.33,11.63-4.35,18.5l2.53-4.23c1.92,2.69-2.39,8.9-2.77,13.84-1.99-1.08-3.65,1.56-5.58,3.13,1.65.24-3.36,10.39.51,12.99l-4.74,5.51c-4.66,11.17,2.09,14.98-1.98,25.83-1.31-4.03-4.34.55-3.76-7.37-1.14,3.69-2.53,6.9-1.07,7.4-1.99,1.76-.2,11.12-3.24,13.91.47,1.84,2.55,3.02,1.13,7.11-.34.2-.66.03-.85-.13.62,1.14-.43,6.49,2.74,3.8-10.05,9.41-9,31.99-17.66,40.21-1.68,8.28-3.89,18.21-5.92,25.58-.5-.66-1.06-.34-.42-1.66-5,9.51,4.27,8.04-1.39,18.87-5.21,4.84-.03-6.66-2.43-3.39-7.5-.51-3.19,14.16-9.63,20.64l.15-1.99c-4.17,5.18-1.69,15.2-5.14,24.68,0,0-.48-.66-1.04-.38,1.57,7.68-1.11,20.51-2.99,30.08-1.84-3.73-.15-4.66-3.47-3.76-.9,4.27,4.86.18,3.04,8.7-2.34,2.22-5.53,7.78-8.74,7.64l2.29-7.85c-5.09,2.79-3.04,10.13-5,14.03l-1.51-1.05c-1.63,6.03-1.4,9.43-1.32,12.91.08,3.48.05,7.06-2.25,13.35l1.7-.9c1.83,8.36-4.28,5.04-3.58,13.02l-4.92.64c-.54,4.91-1.58,17.38-3.87,25.82-.68-2.89-.55-6.85-.2-10.9.34-4.05.82-8.23.96-11.49-.82,2.24-2.09,6.09-3.03,9.76-.97,3.65-1.57,7.13-.98,8.68.27-1.96.08-4.6,1.39-6.15,1.27,6.7.16,14.58-3.49,23.41-1.84-1.2-3.47-.41-5.02,1.49-1.54,1.9-3,4.93-4.6,8.16-3.08,6.54-6.7,13.99-11.14,15.61-1.13,4.02-2.61,7.9-4.51,11.58-.96,1.83-1.98,3.64-3.05,5.44-.55.89-1.09,1.79-1.64,2.69-.59.87-1.18,1.75-1.78,2.63-1.21,1.75-2.43,3.51-3.67,5.29-1.22,1.79-2.59,3.51-3.87,5.32-1.31,1.79-2.56,3.66-3.88,5.52-1.33,1.85-2.64,3.75-3.91,5.74,9.29-1.8-2.91,4.72,3.28,7.69-2.3,3.85-3.42,5.18-4.02,5.25l.79-.59c-.35.24-.54.38-.84.59h.02s-2.83,2.11-2.83,2.11l-2.94,2-5.82,3.93c-3.52,1.17,1.47-4.24.01-4.89-1.61,1.77-2.69,2.75-3.54,3.24-.87.48-1.44.52-1.98.45-1.07-.14-2.01-.67-4.78,1.07,1.35.33,1.47,1.53.69,3.09-.39.78-.99,1.65-1.77,2.53-.79.86-1.76,1.74-2.84,2.57l3.75-1.71,3.75-1.83c-1.55,3.16-3.13,5-4.67,6.19-1.53,1.23-3.07,1.69-4.58,2.19-1.5.5-3,.98-4.59,2.01-.79.52-1.58,1.21-2.41,2.11-.85.88-1.73,1.99-2.65,3.42l1.63-4.34c-2.03,2.69-6.65,6.71-11.24,10.8-4.59,4.1-9.15,8.27-10.55,12.39-1.45-.05-3.76-.88-1.49-2.82-7,3.84-14.22,9.15-21.7,13.44-7.43,4.29-15.14,7.46-21.61,7.16l.79-1.93c-1.37.62-2.46,1.61-3.72,2.41-1.25.8-2.69,1.35-4.67.79.08-.72.89-1.85-.47-1.73-.72.4-2.52,1.5-4.7,2.27-1.09.39-2.26.8-3.42.99-1.16.18-2.29.24-3.28.07l3.16-2.15c-1.93-.14-3.71-.08-5.41-.03-1.69.02-3.3.22-4.84.39-1.54.16-3.02.41-4.48.71-1.45.23-2.87.53-4.29.85-5.64,1.15-11.3,2.43-17.93,1.53.29-1.21-.23-2.4-1.21-3.52-.49-.56-1.1-1.11-1.79-1.64-.68-.56-1.44-1.13-2.24-1.66-.8-.54-1.66-1.03-2.52-1.55-.85-.54-1.71-1.05-2.56-1.53-1.71-.92-3.26-1.89-4.52-2.61l.46-.57c-7.79-3.69-14.93-6.48-21.96-9.36-6.97-3-13.97-6.19-21.08-11.21-2.24-5.54-8.18-12.17-14.35-19.83-6.18-7.62-12.51-16.35-15.94-24.44.69,2.71-3.47,1.76-5.6-.61-.67-2.01-2.87-4.01-4.42-5.73-1.54-1.72-2.32-3.21-.2-4.06l.66,1.32c1.16-2.49.41-5.36-.96-8.4-1.34-3.05-3.39-6.21-4.82-9.2l-5.8,1.74c-.16-9.77-5.7-19.7-10.69-29.08-4.99-9.34-9.48-17.96-7.58-23.88-2.94-3.45-4.79-8.44-7.66-11.93l3.07-.89c-3.34-11.47-4.94-17.2-10.58-30.97l3.15,2.11c-1.29-3.98-4.34-5.75-7.39-7.36-3.04-1.63-6.18-3.16-7.44-6.82l3.79-3.73c-2.29-6.92-3.58-14.21-5.37-21.3-1.81-7.08-4.03-14.03-8.24-20.27.73.02,2.18.01,3.07,2.21-1.87-6.37-4.67-24.96-9.81-22.36,2.51-2.53-4.76-14.58-8.61-21.2l3.36.27c-5.76-5.22-6.87-5.12-10.62-13.71-.22-2.06,1.54-2.49,1.87-.16-.69-6.71-4.42-4.29-5.26-13.06l2.84,2.63c-1.85-7.33-2.72-6.45-6.12-9.81-2.52-4.23-3.19-14.02-.76-15.85-1.96-.51-5.26-3.89-5.64-8.41.88-.86,1.94.52,2.47,1.22-1.25-12.75-8.45-17.19-7.75-26.37.96-.44,1.31-1.12,1.43-1.89,2.35,8.92,4.18,16.25,4.14,16.86,2.72-.85,1.15-8.65,6.66-3.51-3.8-5.68-11.35-15.19-11.91-23.2.18-.44.35-.87.71-1.26l.52.71c-.17-1.84-.83-3.35-1.68-4.71-.16-2.56-.21-4.19-.77-6.54,2.09-1.49-1.04-9.3-1.92-13.24-2.97,1.08-3.78-4.03-5.08,1.1.15-.16.61,1.14,1.3,3.38.24.57.46,1.25.74,1.59-.1-.05-.22-.12-.34-.2.74,2.55,1.67,5.88,2.69,9.68-2.35-2.69-4.49-5.6-3.88-10.36-2.49-1.52-5.08-3.23-6.36-4.25,3.01-6.45,2.87-17.37,5.18-19.44-2.27-5.79-4.28-12.77-6.55-19.11-2.22-6.35-4.83-12.03-8.57-15.19-1.5-3.27.81-4.31,1.44-5.78,1.02,1.85,1.44,4.22,2.51,5.11-2.99-6.52-5.04-20.15-9.35-20.97.11-9.05,4.72,4.1,1.68-7.67l1.56,1.36c.47-6.18-.42-11.51-1.97-16.47-1.56-4.96-3.77-9.56-5.8-14.29-2.07-4.72-4.09-9.54-5.37-14.91-.64-2.68-1.09-5.5-1.26-8.51-.15-2.54-.09-5.22.27-8.07-.14.89-.33,1.43-.75,1.75-.24-7.62-1.17-15.23-2.42-22.84-.63-3.81-1.33-7.61-2.06-11.42-.67-3.82-1.34-7.64-2.01-11.47-1.33-7.65-2.58-15.3-3.38-22.92-.72-7.64-.82-15.27-.17-22.83.27-8.54-2.47-9.17-5.04-14.11l3.21-2.16-4.66-8.44c-1.97-6.12-.35-11.73.91-17.68.63-2.98,1.17-6.05,1.14-9.34.04-3.29-.49-6.8-2.08-10.67l-2.16,2.19c.09-5.72-2.44-17.96.25-17.15-.45-.56-2.49-1.74-1.44-4.03l1.77-.27c-.64-2.3-1.32-4.6-1.93-6.91l-1.77-6.93c.86-10.35,6.5.2,6.89-12.23.14.58.95.58.63,1.67.5-.56,1.69-1.6,1.77-1.47-.48,2.12,2.43-.99,3.48-.57-1.31,1.65-4.04,2.73-2.08,2.49-.75,1.3-2.78,2.21-3.8,2.67,2.61-.81-.35,2.35-.41,3.05l-1.15.26c.69-.15.81.04.95.24l1.98-1.82c-.21.5-.07.7-.97,1.36,1.57-.82,3.43-2.84,5.69-3.83-.87,1.11,1.84.01-.92,2.25.24-1.5-2.24,1.58-3.49,1.82.15.07.18.25.04.59-.29.27-.61.41-.82.47-1.85,2.81,3.51-2.01,4.14-1.04-1.68,1.09-2.86,2.51-2.4,2.41-.25-.4,2.52-2.2,3.99-2.79-.79,1.54,1.4-.06,1.49.35l.32-.8c1.67-1.1,1.69-.65,2.49-.63-.44.36-.71.49-.89.55,1.49-.47-2.55,3.47-.43,2.74-.85,1.13-2.94,2.34-3.47,3.16,2.59-.88-1.55,2.45.73,1.87,1.94-1.88,1.4-1.5,3.87-2.61l-2.46-.03,3.7-1.65c-.26-.38-1.95.29-1.76-.21,2.02-.99,1.46-.61,3.08-2.16-2.78,2.98,2.63-.49.95,1.76l-5.24,4.11c-1.62,2.71,3.92-.6,3.51,1.56l.61-1.08c2.18-1.51.84.45,1.97.14-1.76,1.37-2.2,2.1-3.15,3.13,1.27-1.06.55.92,4.07-1.79l-1.87,2.35c-.19,1.67,5.73-3,5.83-1.67-2.07,1.29-2.97,2.68-4.77,3.21.22.3.12.82,1.31-.16-.93,1.06,2.95-1.12,1.54.5.85-.51,2.67-1.96,2.78-1.52-.32.32-.84.71-.84.71.84-.7,1.56-.47,3.21-2.33-4.56,5.33,2.45,2.05-1.43,6.66,1.1.12,2.27.39,2.88.83-.53.4-.84.73-.75.47-.89,2.12,5.22-3.73,4.23-1.35-2.32,2.81-1.86.83-2.64,2-5.4,4.95,1.66.38-1.03,3.8l-.45.14c-1.47,2.1,3.03-.75,3.27.33,0,0-.51.4-.83.73,3.2-1.98,4.97-1.91,6.36-1.94-2.31,1.72-1.41.71-3.44,2.8.59.03,3.38-3.23,4.54-3.18-.98,1.25-1.58,2.61-3.81,4.77l-.66-.46c-2.69,3.01.8.65.56,1.43l-1.33,1.15c1.25.5,4.51-2.5,5.15-1.34l.88-1c3.68-2.48-1.4,2.11,1.46.4l-3.1,3.2c1.1-.39,4.24-1.76,5.41-1.73-2.71,1.93-4.6,2.38-6.44,3.27.29.36,1.32.93,3.07-.41-.44.16-1.39.74-1.02.13,2.93-1.99,4.67-2.64,5.24-1.92-6.33,5.85.05,3.25-4.26,8.38,3.44-1.07,1.34,3.26,3.07,4.26,4.26-5.22.53.26,5.32-4.7.61,0,.65.19.38.53l.13-.26c-.07.12-.11.19-.16.3l.02-.02-1.94,3.86c-1.18,1.65-1.37.78-2.43,1.91.32,1.07-1.76,2.37-2.58,4.14,1.63-1.85,2.72-2.27,2.46-1.2l1.67-2.82c3.53-1.66-3.2,4.97.32,3.35l-1.82,1.24c1.39-.41,1.85,1.9,6.2-1.65-.46.66-1.64,2.14-2.21,2.28.68,1.77,6.8-1.71,5.43,1.66l-1.24,1.14c.56-.14,2.56-1.94,1.69-.43-.49.5-1.24,1.15-1.2,1.32.52-.31,2.62-1.6,2.26-.59l-1.55,1.15c-.28,2.76,4.98-1.67,6.75-1.6-3.33,3.67-3.47,5.77-3.51,6.79l-.49.51c1.06,1.73,5.22-.92,7.83-1.23-2.7,4.78,1.34,4.15.73,7.61.38-.86,2.53-2.92,3.09-3.09-.33,1.04,3.08-1.88.1,1.55l-.06-.16c-2.63,3.61-1.23,3.29-.78,3.8l3.9-4.5c-4.16,7.76,5.56.4,1.4,7,1.27-.89,1.66-.55,2.92-1.45l-2.02,2.47c.4,1.37.62,2.06,2.22,2.37l-1.65,1.6c.52.68,6.51-6.57,7.2-6.26l-2.76,3.89c1.13.84-.24,5,3.51,2.43-.44.54-1.31,1.61-1.62,1.62.46.5.14,4.13,3.89-1.23-2.56,3.4.93,1.21,2.66.17l-1.98,2.44c2.92-2.82,3.59-3.69,4.97-4.05-.07.46-1.35,2.13-1.1,1.32-.41,1.75,2.21-2.06,1.9-.2l-1.45,1.42c.44.63,1.03-.27,2.74-1.92,1.11-.74.63,1.46-.96,3.82,1.1-1.34,2.78-2.98,2.64-2.06-.58.9-1.1,1.35-1.35,1.57-.27,2.47,3.61-1.92,2.49,1.07-.59.86-.85,1.31-.97,1.61-.75-.61-1.29-1.2-1.1-1.35-1.69,2.35-1.34,3.21-4.19,6.1,1.8-1.4,5.45-4.65,5.28-3.1-.13.25-.26.49-.5.87l-.25.22c-.02.34.27.21.67-.1-.07.53-.15.91.02,1.07-1.31,2.01,0,1.58.26,1.9,1.79-2.61,1.92-1.91,3.02-4.32-.08.22-.28.27-.57.23-.1.04-.19.04-.33.17.05-.06.12-.14.18-.21-.26-.07-.58-.2-.92-.38,1.18-1.14,2.22-2.06,1.56-.38,1.29-1.48,2.66-3.06,3.38-3.88-2.1,3.92-2.62,6.47-4.05,8.79,2-.78,3,.65,6.95-3.84.7-.44-.64,1.63-1.06,2.48-.5.38-.63.17-1.2.82,1.41-.88,1.98.65,4.43-2.71-.35,2.04-2.53,2.91-1.18,3l-.84.97c-.87,3.39,1.4,1.7,3.54.2,2.07-1.44,4-2.69,3.01,1.06.09-.3.18-.55.43-.98.2,2.36,1.94,2.43,3.51,2.72,1.58.29,2.97.82,2.66,4.08.08,1.44,1.54-.78,3.01-2.25l-1.61,3,2.76-2.93c2.5-1.86-2.5,8.23,1.6,4.34l1-2.07c.25.65,2.17-.29.76,1.94.26-.33,1.36-1.96.94-.83l-.88,1.55,2.68-1.96c.25,1.64-3.68,6.03-2.53,7.12.84-.3,3.96-3.67,4.37-4.82-.15-.19.05-1.26.92-2.82l.9-.55c2.68-4.51,5.65-8.99,6.43-12.79l-2.32,2.35,1.04-2.34.69.22c.85-2.28-.42-.57-1.39.54.62-1.21.99-2.09,1.1-2.61l-3.22,3.92c.95-1.83,2.36-3.33,2.46-4.59-1.5,1.81-2,4.17-3.32,5.16.85-2.27,1.94-3.88.5-2.37.63-1.2,1.15-1.89,1.61-2.31-1.18,1.18-1.3.03-2.9,2.32,1.14-2.75-1.62-.07.96-4.31-.72.96-2.63,2.97-3.07,2.95,3.67-4.74-1.06-1.04,2.39-6.4-3.21,4.31-2.84,1.08-5.18,3.14.23-.29.65-.82.72-.8-.16-.67.51-2.05.76-3.07-2.38,3.72-3.59,4.14-5.41,6.21,1.72-3.96,3.07-4.19,5.07-7.77-1.86,3.06-2.82,2.43-4.22,5.08.99-2.5.33-1.31,2.06-4.54-3.01,4.63-.88.55-3.03,3.19.86-2.68,2.62-4.47,1.07-3.46.6-1.62,2.22-2.91,2.22-2.91-.6-.5-2.5,3.24-3.92,5.17-1.43.48,1.29-2.82,2.17-4.78-1.08.61-3.53,3.58-3.81,3.21.34-.59.41-.85.96-1.52-2.32,2.44-1.63-.86-4.52,2.23.16-.34.33-.64.49-.91-1.05,1.81-2.19,3.59-3.04,4.83-.34-.14-2.01,1.83-.63-.51.14.19.76-.72,1.32-1.37l-.97.78c1.87-3.45,1.18-.85,2.77-3.27-1.31.67-3.82,2.91-3.68,1.68,2.02-3.25,1.81-.37,3.07-3.6l-.08,1.68c2.78-5.39.2.63,3.26-5.08-.32-1.53-2.14.96-2.44-.6-1.39,1.62-1.68,2.66-3.08,4.28-3.46,2.24,4.36-8.69.54-5.14-1.68,1.94-4.52,5.86-3.76,3.27l2.68-3.41c-.65-.97-4.04,4.77-3.33,1.72,1.14-1.28,1.52-.69,1.68-1.21,1.34-3.23-1.82,1.72-2.3,1.39l2.09-3.21c-1.29-.16-3.93,1.37-5.4,1.2.72-.89,1.59-1.74,2.03-2.87-1.22.32-1.87-.27-2.19-1.28-.32-1.02-.31-2.48-.26-3.86l-2.43,2.31c-.09-.11.68-1.36,1.18-1.78.26-1.37-1.27,1.67-2.27,2.54-.42-.02.76-1.81,1.53-2.47-2.51,1.62-6.07,3-4.85-.51l.77-.65c.11-1.6-4.89,4.8-3.69,1.85l.48-.37c-.67-2.29-4.25-1.17-2.29-6.05-3.17,3.57-.15-2.85-4.38,2.27,1.19-3.27,2.18-4,2.37-6.69-.13-.49-3.08,2.85-3.92,3.06l2.18-2.71-2.84,2.39,2.34-3.45-.93.39c.02.28-.67,1.46-1.33,2.22-1.58.74.12-3.02,1.24-4.4l-3.24,1.16c.7-.8,1.18-1.1,1.7-1.43-1.78,1.11,2.52-3.12-.03-1.3-.42.68-1.37,1.55-1.84,2.08,1.02-1.89.3-2.54-.82-2.34l1.65-1.74c-.58-1.31-2.81-.91-3.88-1.9-.34,1.19-3.14,4.25-3.73,4.27l2.27-2.89c-1.7,1.53-.57,1.35-2.82,3.07-.14-.68,2.46-3.39,3.47-4.09l-1.34.53c.69-.85,1.19-1.19,2.14-2.22-1.71,1.54,1.56-3.52-1.34-.8l.69-.85c-1.07-.97-2.41-.46-3.43-1.1-2.13,2.35-2.01,1.52-3.99,3.19.03-1.35.99-3.86.04-4.38-1.61.66-1.97,1.83-3.48,2.99,1.91-2.17.95-2.69,2.75-3.84-1.25-.52-1.57-.68-4.35-.06-.68.99-.88,1.49-1.63,2.14-.54.15.34-1.34,1.31-2.32l.26-.16c-4.23,1.86,2.49-8.54-2.19-5.71l-3.22,1.19c-.14-.84,1.8-1.26,2.69-2.9-4.5,2.31-1.3-2.28-4.49-.93,5.3-6.74-2.99-2.14-.1-6.93l-1.38,1.46c-1.66,1.12.52-1.11.66-1.61-1.09,1.11-1.02,1.53-1.95,2.14-3.88-.45-2.17-6.57-2.93-10-.36-1.18-8.06,6.57-5.51,2.28l3.02-2.22c-2.42.68-3.19-.2-3.89-1.13-.67-.96-1.27-1.96-3.42-1.55.73-.47,1.57-1.21,1.7-1.03,1.72-2.15-1.04-1.4-2.71.05-.04-.43,1.45-1.38,2.15-2.28.89-1.4-3.38,1.38-1.51-.58.2-.21.47-.35.68-.44-.84.2-.6-1.2-2.57.86.58-1.6-2.11-.31-1.14-2.01-2.94,1.93.34-2.17-3.52.92,3.93-3.25,2.17-3.75,0-2.64,1.29-.85.93-1.38,2.7-2.59-.43-.42-1.51-.24-3.46,1.51,4-4.75-5.21,1.37.44-4.08-3.25.34-5.75.2-7.72-.33,4.02-3.12,1.53,1.09,5.65-2.31-2.59.13-6.58,2.14-6.59.18.3-.74,1.88-1.18,2.64-1.62-2.63.1-1.43-2.64-4.46-2.04.38-.29.88-.48,1.27-.61-.3-.11.22-.96-1.6.47l.66-.17c-2.4,2.39-6.21,3.39-7.66,4.42,5.55-3.64.5-2.11,7.61-6.58-.45.12-1.46.6-2.67,1.57.2-.49.87-1.1,2.43-1.94-1.58-.01-3.34,1.74-3.83,1,.9-.67,1.35-.79,2.46-1.5-2.01.96-4.03,1.9-3.72.74.49-.32,1.05-.81,1.27-.81-1.16-.68-5.9,1.69-5.07-.64,4.18-2.53,1-1.33,4.36-3.86l-1.45.13-1.48,1.45c-.32-.58-3.14.73-2.35-.55l1.69-.61-1.36-.55-.89,1.51c-2.15.71-4.28,3.16-3.84,1.74.46-.1-.35-.58,1.48-2.31,0,0,0,0,.01,0-1.28.5-2.63,1.04-2.06.03,1.03-.88,3.86-2.6,4.55-3.18-3.06,1.76-1.69-.71-5,1.09.8-.39,2.62-1.65,2.96-1.94l-2.5,1.41c.57-.78.91-1.07,2.38-2.03-.1-1.06-4.21,3.29-2.96,1.07.24-.06.57-.34,1.03-.44.35-1.59-2.72-.73-2.15-2.36,3.33-2.63,1.37.14,4.12-2.15-.73-.38-2.22-.28-3.52-.31-1.28-.04-2.38-.22-2.35-1.09l-.25.48c-5.08,3.14,1.88-2.52-.86-1.57.47-.1,2.9-1.63,2.31-1.31.28-1.34-2.3-.85-4.69-1.07l1.39-.68c.84-1.22-.16-1.69.1-2.59-1.39.67-1.37.24-3.14,1.62,6.37-6.28-5.99-.57-.66-5.89.12.17,1.39-.29,1.31-.43l-1.94-.49c-2.16,1.46-1.25.99-2.82,2.31-1.41.65-2.64.92-2.83.61,1.81-.34,3.56-2.19,4.66-3.18-.66.46-1.46.83-2.14,1.27,3.57-3.06-4.54,2.61-2.41.1l1.2-.66c-.8.03-2.53.65-2.41.09,2.49-1.7,1.42-.37,3.55-1.62-.45-.41-5.49,1.94-3.19-.06.85-.22,1.05.09,1.89-.13,2.74-2.31,1.93-1.91,2.2-2.56l-.05.08.87-1.66-.7.7c-7.14,3.37-2-.54-6.95,1.2,4.7-1.63,2.51-1.28,5.5-2.94.69-.69,1.41-1.55,2.3-1.94-2.62.99,1.48-1.74-2.34-.29.94-.57-.16-.48,2.28-1.77-1.06-.08-1.59,1.07-2.8,1.72-3.75,1.07,2.9-4.15-2.24-2.77-2.18.03-5.12,1.35-7.25,1.55.04-.04.09-.08.11-.14-.05-.06-.13-.13-.23-.21,1.35-.9,3.13-1.29,3.13-1.29,1.13-1.3.66-1.54-.71-1.42.89-.36,1.55-.86,2.55-1.6-.46-.25-3.65,1.66-2.51.37,1.12-.5,2.91-1.33,4.09-1.73-1.14.03-3.19.56-4.32.56,1.61-1.04,2.71-1.1,3.9-1.53-1.05-.12-2.28-.54-5.04.73l-.57.64c.56-.38,2.17-1.15,2.61-1.24,2.34-.67-.56,1.15-1.52,1.71h-.81c-5.47,3.41,1.66.87,1.7,1.72l-4.27,1.97,3.8-1.17c-.67.5-1.91,1.28-2.89,1.74-1.48-.82-3.98-1.86-4.87-1.88-.13.2-1.21.34-2.96,0l-.8-.68c-5.12-1.14-10.31-2.57-14.15-2.11l2.97,1.48-2.55-.24v-.73c-2.44-.08-.42.59.95,1.17-1.34-.21-2.29-.28-2.82-.22l4.74,1.84c-2.03-.32-3.91-1.2-5.14-.88,2.2.86,4.58.57,5.95,1.52-2.42-.09-4.3-.6-2.4.28-1.34-.21-2.16-.49-2.7-.79,1.5.75.44,1.24,3.12,2.03-2.97-.19.45,1.57-4.4.49,1.13.38,3.66,1.55,3.78,1.98-5.66-1.95-.65,1.36-6.84-.17,5.11,1.65,1.92,2.37,4.63,3.92-.34-.12-.98-.35-.99-.42-.58.38-2.12.2-3.16.3,4.29,1.02,5.09,2.05,7.65,3.08-4.3-.3-4.97-1.52-9.01-2.22,3.5.75,3.23,1.87,6.19,2.32-2.68-.1-1.34.13-4.97-.43,5.37,1.31.81.65,4.02,1.81-2.82.09-5.08-.97-3.62.17-1.73-.02-3.48-1.13-3.48-1.13-.27.75,3.89,1.28,6.18,1.98.93,1.2-3.09-.26-5.24-.42.94.82,4.56,2.13,4.3,2.53-.67-.12-.94-.1-1.75-.39,3.08,1.37-.26,1.86,3.61,3.53-.37-.03-.72-.09-1.02-.14,2.06.37,4.12.84,5.58,1.21-.01.37,2.41,1.27-.27.77.13-.2-.94-.47-1.74-.77l1.07.64c-3.88-.58-1.2-.82-4.02-1.49,1.07,1.01,4.03,2.6,2.82,2.9-3.75-.78-.95-1.59-4.43-1.65l1.62-.51c-6.02-.76.53-.42-5.89-1.32-1.34.85,1.62,1.7.26,2.54,2,.75,3.08.66,5.08,1.41,3.31,2.49-9.66-1.05-5,1.32,2.4.91,7.07,2.19,4.38,2.4l-4.13-1.32c-.68.97,5.88,2.12,2.77,2.54-1.6-.61-1.18-1.19-1.72-1.16-3.5-.1,2.25,1.11,2.11,1.67l-3.75-.82c.3,1.29,2.66,3.23,3.02,4.68-1.09-.35-2.19-.87-3.4-.87,1.46,2.08-1.31,3.29-3.94,4.23l3.04,1.43c-.07.13-1.51-.13-2.09-.44-1.37.27,2.02.57,3.2,1.19.13.4-1.96-.04-2.86-.51,2.42,1.77,5.01,4.58,1.29,4.76l-.89-.48c-1.53.51,6.27,2.77,3.08,2.76l-.52-.31c-1.89,1.5.46,4.41-4.77,4.46,4.5,1.58-2.58,1.26,3.77,3.22-3.48.16-4.53-.48-7.09.4-.41.31,3.81,1.76,4.33,2.45l-3.34-.97,3.3,1.7-4.09-.82.72.72c.25-.13,1.61.05,2.56.36,1.29,1.18-2.84,1.09-4.55.59l2.31,2.56c-1.01-.34-1.47-.66-1.97-1.01,1.7,1.21-3.86-1.1-1.2.55.79.11,1.96.66,2.63.88-2.14-.19-2.45.75-1.83,1.71l-2.25-.83c-.98,1.08.27,3-.22,4.4,1.22-.18,5.15,1.17,5.4,1.71l-3.56-.93c2.08.95,1.46-.02,3.94,1.36-.57.41-4.1-.89-5.14-1.55l1.01,1.03c-1.06-.29-1.56-.61-2.88-1.07,2.09.95-3.86,0-.2,1.57l-1.05-.29c-.47,1.4.53,2.43.35,3.64,3.01.99,2.2,1.23,4.53,2.36-1.24.54-3.92.71-4.01,1.81,1.26,1.21,2.48,1.04,4.16,1.95-2.76-.84-2.84.26-4.63-.92.04,1.37.03,1.74,1.73,4.03,1.18.21,1.73.18,2.63.59.36.43-1.36.26-2.66-.22l-.26-.17c3.45,3.08-8.84,1.38-4.32,4.45l2.45,2.44c-.7.49-1.91-1.1-3.77-1.2,4,3.12-1.52,2.19,1.06,4.52-8.37-1.86-.66,3.68-6.25,3.16l1.91.6c1.73,1.01-1.22.02-1.75.12,1.48.49,1.83.24,2.78.82,1.25,3.72-4.96,4.93-7.73,7.21-.9.88,9.48,4.28,4.49,3.94l-3.34-1.71c3.37,3.77-1.81,4.37.87,7.84-.75-.44-1.79-.85-1.69-1.05-2.7-.54-.77,1.6,1.28,2.41-.37.24-1.89-.65-3.01-.86-1.66-.14,2.77,2.39.17,1.64-.28-.08-.52-.25-.7-.41.56.66-.8,1.11,1.94,1.9-1.7.24.69,2.03-1.28,1.98,3.07,1.72-2.09.73,2.43,2.71-4.71-1.97-4.35-.15-2.35,1.25-1.36-.75-1.66-.17-3.55-1.17-.17.59.49,1.47,2.95,2.36-6.08-1.28,3.66,3.98-3.81,1.58,1.83,2.73,2.88,5.02,3.35,7.01-4.66-2.04.24-1.88-4.71-3.89,1.33,2.25,5,4.79,3.27,5.74-.79.1-1.94-1.08-2.69-1.54,1.33,2.27-1.63,2.58.36,4.95-.43-.19-.85-.54-1.15-.82.04.32-.94.28,1.19,1.18l-.47-.49c3.25.93,5.98,3.79,7.59,4.55-5.88-3.08-2.08.6-9.45-3.43.33.34,1.24.99,2.67,1.57-.52.06-1.38-.22-2.88-1.17.76,1.4,3.15,2.07,2.74,2.87-1.02-.45-1.35-.79-2.51-1.41,1.82,1.29,3.63,2.59,2.46,2.9-.52-.27-1.22-.52-1.33-.71-.03,1.36,4.36,4.31,1.91,4.75-4.26-2.37-1.65-.21-5.52-1.87l.83,1.21,1.99.56c-.35.58,2.2,2.38.7,2.34l-1.37-1.17.2,1.47h1.75c1.69,1.53,4.88,2.15,3.43,2.48-.32-.34-.33.59-2.73-.12,0,0,0,0,0,0,1.08.86,2.22,1.76,1.06,1.78-1.28-.44-4.18-2.04-5.03-2.33,3.06,1.77.23,1.83,3.46,3.78-.74-.5-2.74-1.43-3.17-1.58l2.48,1.45c-.96-.1-1.38-.25-2.96-1.03-.87.63,4.96,1.97,2.41,2.02-.17-.18-.58-.32-.89-.67-1.55.51.74,2.73-.97,3.06-3.96-1.53-.56-1.25-3.94-2.46.09,1.66,3.31,4.94,1.77,5.8l.54-.04c5.31,2.75-3.13-.31-.9,1.55-.32-.35-2.89-1.64-2.31-1.31-1.29.46.45,2.43,1.5,4.59l-1.3-.84c-1.48-.08-1.37,1.02-2.27,1.28,1.3.84.92,1.05,3.02,1.84-8.69-2.13,2.62,5.4-4.7,3.68.08-.19-.98-1.03-1.06-.89l.61,1.93c2.38,1.06,1.5.54,3.45,1.17,1.3.86,2.18,1.76,2.02,2.08-1.24-1.36-3.74-1.87-5.17-2.27.73.32,1.48.8,2.21,1.14-4.48-1.4,4.62,2.47,1.36,2l-1.2-.66c.45.66,1.9,1.8,1.36,2-2.77-1.2-1.07-1.01-3.27-2.15-.11.6,4.56,3.62,1.64,2.74-.63-.6-.48-.93-1.11-1.53-3.42-1.08-2.65-.62-3.34-.49h.09s-1.88.16-1.88.16l.97.21c6.66,4.23.6,1.99,4.73,5.23-3.89-3.09-2.43-1.43-5.43-3.06-.96-.21-2.07-.35-2.88-.89,2.24,1.68-2.28-.3,1,2.13-.99-.48-.32.4-2.72-.97.49.94,1.76.75,2.96,1.43,2.91,2.58-5.06-.16-1.12,3.42,1.33,2.01,4.51,3.93,5.62,5.76-1.73-.5-3.4-2.14-3.4-2.14-1.71-.24-1.65.29-.8,1.38-.79-.55-1.56-.83-2.73-1.26.05.53,3.39,2.14,1.69,1.9-1.03-.67-2.7-1.7-3.69-2.47.65.94,2.21,2.36,2.83,3.31-1.75-.78-2.41-1.66-3.42-2.42.47.94.79,2.21,3.37,3.81l.86.12c-.63-.25-2.15-1.18-2.48-1.5-1.85-1.59,1.28-.17,2.27.33l.44.68c5.87,2.69-.18-1.87.52-2.38l3.98,2.49-3.06-2.54c1.16.42,3.52,1.55,3.96,2.22,2.31.59-1.24-1.22,1.27-.44.38.14.57.27.71.4l-.97-1.14c.82.56,2.97,1.47,2.21,1.45,2.86.38-2.36-3.05.96-1.73l.22.21c-.76-1.95-2.98-1.72-6.08-4.5l7.85,3.32-2.99-1.71c.18-.07.54-.2,1.73.49-1.84-1.56-1.37-.61-3.2-1.91,3.11.85-.44-2.34,4.5.05-2.21-1.42-2.09-.35-3.37-1.83,5.33,2.52-.52-1.21,2.17-.53,2.62,1.56.92,1.35,3.62,2.04-4.4-2.69,1.55-.57.92-1.5-3.63-1.89-1-1.8-1.81-3.21,1.2.67,2.76-.47,4.45-.54l.6.33c-3.62-2.01-2.54-2.41-3.03-3.35,2.21,1.13,3.03,1.67,3.87,2.47l.25-.53c-1.12-.72-1.67-1.19-1.92-1.74l2.7,1.51c.2-.77-2.55-3.02-.26-2.99-2.56-1.33-7.54-2.86-8.81-4.66,1.41.66,3.82,1.81,4.28,2.34-.15-.17-1.02-.86-.35-.73l2.17,1.54c1.23.1-1.86-1.19-1.49-1.4,1.99.99,1.54.46,3.1,1.29.15.18-.96-.12-.24.39.54-.19,1.94-.05,3.52.54-1.15-.53-2.69-1.32-2.82-1.72.19-.77,2.52.94,3.74,1.04-1.3-.85.35-.59-2.63-2.07.11-.2,1.53.45,2.38.77-1.14-1.01.44-1.88-2.94-3.02h-.25c-.05-.06-.05-.08-.1-.13-2.4-2.62,2.88-1.63,2.17-3.42l1,.48c-.81-1.25.08-1.88-1.84-3.41.1-.2,2.07.39,3.23,1.04-.5-.9-1.59-1.49.43-1.48,1.5,1.37,1.65.55,1.02,1.16,1.2-.29,2.88.31.48-1.74,2.46,1.47,3.49,1,2.88.3l-2.08-.37c-.2-.55.18-.77.55-1.01l3.31,1.77c4.81.47-5.83-5.88,1.6-3.77-2.2-1.48-2.04.01-4.66-1.62.76-.45,5.97,1.11,6.08.9,2.31-.05-4.59-3.13-2.86-3.49-1.27-.43-4.57-1.8-5.39-3.03.75-.45,5.48,1.51,6.27,2.37.03.21-.39.11-.8-.09.35.42.73.93,2.18,1.27l-1.18-.64c1.39.24,1.69-.74,3.59.38-.8-.89-1.64-1.08-2.37-1.06,1.66-.18.43-1.3,1.91-1.64-.73-.16-2.22-.68-2.15-.81,2.08-.62-2.06-1.61-2.21-2.72,2.08.33,4.37,2.16,3.19.58,1.5.02,3.29,1.33,4.19,1.99-2-1.86,2.21-.83,2.85-1.1l.8.87c-.47-.52-.36-.72-.26-.93l-2.56-.84c.54-.06.64-.27,1.66.18-1.49-.97-4.16-1.6-6.12-3.08,1.39.22-.89-1.6,2.41-.29-1.42.51,2.48,1.18,3.29,2.14-.02-.16.13-.27.49-.31.38.12.66.33.81.48,3.35.26-3.47-2.08-2.94-3.08,1.77.93,3.58,1.28,3.27.93-.22.4-3.15-1.13-4.38-2.13,1.72-.04-.74-1.19-.43-1.46l-.85.11c-1.77-.93-1.39-1.16-1.76-1.87.54.22.79.39.92.53-1.19-1.09,4.25.55,2.57-.95,1.39.2,3.47,1.45,4.44,1.52-2.03-1.83,2.89.2,1.28-1.5-2.58-.81-1.99-.51-4.15-2.13l1.15,2.15-3.22-2.43c-.21.41,1.18,1.56.66,1.63-1.84-1.29-1.24-.98-3.38-1.66,3.95,1.01-1.69-2.06,1.1-1.66l6.12,2.62c3.15.15-2.4-3.12-.31-3.78l-1.24-.03c-2.37-1.2,0-.95-.82-1.78,2.04.9,2.89.94,4.25,1.3-1.53-.61.54-.9-3.51-2.72l2.95.54c1.55-.6-5.36-3.62-4.24-4.34,2.11,1.22,3.76,1.36,5.08,2.7.16-.33.67-.48-.76-1.07,1.37.33-2.38-2.07-.3-1.58-.85-.51-2.98-1.44-2.65-1.75.43.13,1.02.42,1.02.42-1.02-.42-1.15-1.16-3.56-1.75,6.85,1.56.69-3.1,6.58-1.79-.4-1.02-.71-2.18-.59-2.91.6.29,1.03.41.76.45,2.29-.17-5.71-2.92-3.15-3.12,3.56.78,1.59,1.27,2.99,1.43,6.87,2.53-.43-1.64,3.84-.8l.33.33c2.53.36-2.06-2.34-1.22-3.04,0,0,.59.28,1.03.4-3.23-1.95-3.96-3.55-4.6-4.78,2.57,1.29,1.27.93,4.05,1.81-.24-.53-4.41-1.56-4.88-2.61,1.56.31,3.05.24,5.98,1.27l-.12.79c3.9,1.06.22-.99,1.02-1.13l1.62.67c-.11-1.32-4.25-2.9-3.51-3.98l-1.29-.34c-3.86-2.19,2.51.32-.3-1.47l4.24,1.36c-.84-.81-3.46-3.01-3.96-4.07,2.93,1.58,4.17,3.07,5.8,4.32.19-.42.24-1.57-1.74-2.56.34.32,1.28.92.57.85-3.08-1.74-4.44-3.02-4.05-3.84,8.04,3.12,2.88-1.47,9.38.19-2.46-2.61,2.35-2.57,2.5-4.53-6.55-1.61,0-.58-6.53-2.77-.26-.55-.11-.67.31-.57h-.29c.14,0,.22,0,.34,0h-.02s4.32.11,4.32.11c2,.37,1.29.9,2.77,1.37.82-.74,2.89.58,4.83.58-2.37-.69-3.22-1.48-2.15-1.69l-3.26-.32c-3.02-2.47,5.85.8,2.87-1.67l1.91,1.11c-.97-1.07.9-2.43-4.13-4.86.79.14,2.63.59,3,1.04,1.32-1.32-4.41-5.4-.77-5.54l1.56.65c-.36-.45-2.83-1.51-1.1-1.35.65.24,1.56.65,1.7.54-.5-.34-2.54-1.71-1.48-1.79l1.69.93c2.61-.86-3.6-3.81-4.27-5.45,4.71,1.54,6.66.82,7.61.45l.66.24c1.15-1.63-2.95-4.33-4.29-6.58,5.46.58,3.25-2.84,6.65-3.62-.94,0-3.68-1.17-4.07-1.61,1.09-.1-2.96-2.08,1.38-.7l-.13.11c4.36,1,3.49-.15,3.78-.75l-5.67-1.82c8.77.83-1.79-5.22,5.91-3.92-1.31-.82-1.15-1.31-2.46-2.12l3.06.91c.55-.44.96-.76,1.19-1.18l4.68,7.83c-1.99,1.21-4.27-3.91-5.08,2.29,2.58,4.16,4.35-4.33,6.31,2.67-2.11,4.57-4.13,3.38-1.78,8.49-1.3.81-2.23-.24-2.95-2.29,1.9,4.56,1.43,12.28,4.36,14.5-1.33,2.41-.9,6.33-.76,9.62.14,3.29.11,5.96-2.4,5.92,1.31,1.38,4.59,7.88,5.16,12.11-6.59-7.29,1.02,15.98-5.51,14.51,1.45,1.32,2.44,3.27,3.16,5.61.76,2.33,1.29,5.05,1.75,7.91.93,5.72,1.62,12.03,3.65,16.96-.41-.44-1.15-1.23-1.28-2.02.1,5.42-1.25,7.29-1.83,11,4.4.23,6.59,9,9.94,13.43-3.29,7.54-5.71-3.59-9.48-.87,3.5-.8,5.17,11.73,7.8,8.95-1.9,5.71-.65,4.78-3.91,8.05,5.59.18,1.59,4.87,5.54,8.83-1.5,8.12-4.81,2.74-1.83,10.99-1.04,4.3-4.16-2.98-4.16-2.98,1.26,8.69,4.66,3.46,7.31,4.94,2.77,10.13-2.29,5.24-3.84,9.09,2.11,6.29,6.62,10.62,7.25,15.44-.61.47-.69,1.44-1.73.49,4.47,6.23,3.74,20.13,9.24,27.28-.26.65-.55,1.01-.83,1.22,1.82-1.66,3.87-2.24,5.4-2.25.76,3.83,3.84,6.65,1.48,8.59-.39-2.36-1.49-2.36-2.53-3.3.62,1.27,1.27,2.54,1.93,3.8-1.56,2.17-2.17.87-2.74-.92-.57-1.78-1.03-4.06-2.47-3.79,2.69,7.64,7.77,16.13,7.84,22.34-3.5,2.01-4.05-13.8-5.8-5.12l-.41-9.58c-4.52,8.25-.71-5.74-5.75,2.01,1.35,12.49,4.64,13.35,5.98,25.81,2.63,2.32,2.9-1.55,5.53.78,7.42,16.49-6.46,15.63,1.28,27.29,3.23,2.74,8.17,2.96,7.73,12.55l-4.93-2.11c2.34,11.88,7.64,5.31,7.72,18.28-2.17-1.79-3.59-8.91-3.67-7.01-1.43,8.76,3.73,5.08,5.18,11.21l-3.43,2.16c3.46,12.42,9.8,25.43,13.95,39.05-1.3-.48-3.06-2.54-3.37.98.79,2.12,1.52,4.29,2.2,6.5.71,2.2,1.38,4.44,2,6.71,1.24,4.54,2.31,9.19,3.25,13.87.94,4.67,1.74,9.36,2.46,13.97.74,4.6,1.46,9.1,2.1,13.42l5.01,5.46c.39,1.49-.65,3.16-1.72,1.73.66,6.84,2.11-.24,4.26,2.51,1.28,3.62-.43,5.41-2.05,3.34,1.49,2.67,3.19,5.94,4.89,9.54,1.75,3.59,3.51,7.5,5.08,11.5,3.15,7.98,5.56,16.26,5.68,22.79l-1.64-2.05c1.57,9.74,9.75,8.51,9.5,18.06l-1.08-1.48c4.89,20.66,15.07,41.97,15.41,58.98,5.54,1.42,4.93,20.52,11.67,19.61.47,6.25.14,8.67.17,11.62.02,2.96.36,6.45,2.33,14.91,1.33,4.42,6.29,4.95,8.99,9.99l-3.19,1.39c2.05,1.97,4.16,3.91,6.23,5.85-.78,1.79-1.55,3.58-2.3,5.38l2.87,4.62c-.63-2.06-.29-4.79.76-4.87,2.29,3.57,3.74,8.47,4.42,12.64.72,4.15.67,7.56-.1,8.02,1.82,2.84,3.7,5.65,5.55,8.46,1.93,2.78,3.78,5.58,5.75,8.33-1.08.18-2.41-1.29-3.82-2.88,2.21,2.61,1.72,3.3,1.15,3.95-.68.76-1.43,1.46,2.27,5.1.09-1.54,2.16-.32,2.88-.46.44,5.3,5.84,15.22,11.07,21.81l-2.87-.11c.91,1.67,1.91,3.32,2.97,4.96,1.06,1.64,2.13,3.3,3.28,4.94,2.35,3.25,4.76,6.55,7.43,9.77,2.57,3.27,5.42,6.43,8.18,9.68,2.9,3.16,5.73,6.41,8.73,9.57-3.42-5.34.71-7,4.35-3.64l-1.32,3.99c3.84.8-2.53-4.78,3.97-1.85,4.16,4.76.09,5.99-3.42,4.17l6.48,4.65c-.43,1.12-2.14.24-3.46.89,1.91.37,3.84,3.31,6.05,6.31,2.22,2.97,4.97,5.79,8.01,5.79l-.33,1.14c3.56,2.68,6.59,5.04,9.59,6.86,1.48.93,2.89,1.81,4.24,2.66,1.38.81,2.76,1.53,4.09,2.26,1.34.72,2.65,1.43,3.97,2.13,1.35.65,2.7,1.3,4.09,1.97,1.39.66,2.78,1.39,4.28,2.08,1.5.68,3.07,1.39,4.73,2.14.81-1.38,2.38-1.28,4.4-.96,2.08.27,4.58.83,7.03.4,1.19.56,2.4,1.15,3.63,1.75.61.3,1.23.61,1.85.92.63.28,1.27.57,1.91.86,1.29.58,2.6,1.16,3.92,1.76,1.35.52,2.72,1.05,4.11,1.59,5.59,2.03,11.69,3.69,18.16,4.1,2.3-.14,3.62-.47,4.37-.78.75-.32.94-.65.98-1,.07-.71-.45-1.48,1.57-2.32.48,3.08,13.29,2.69,6.68,4.81,1.94-.03,3.69-.21,5.32-.31,1.63-.09,3.13-.25,4.56-.43,1.43-.18,2.78-.33,4.11-.53,1.32-.24,2.62-.48,3.95-.73,5.28-1.13,11.05-2.58,19.92-6.19-2.3-.62-4.64-.59-3.73-1.82.79-.32,1.67-.52,2.55-.62.87-.12,1.73-.16,2.5-.1,1.53.11,2.69.58,2.65,1.31l-.79.54c2.42-1.22,4.92-2.4,7.57-3.34,1.32-.5,2.64-1,4.01-1.45,1.37-.44,2.75-.88,4.14-1.33,5.6-1.69,11.41-3.38,17.08-5.25,5.66-1.89,11.09-4.12,15.79-6.79,2.32-1.37,4.47-2.83,6.34-4.43,1.84-1.65,3.47-3.32,4.68-5.24l-.57.82c4.05-4.4,7.89-8.93,11.48-13.58,3.1-2.53,2.59-1.34,2,.19-.59,1.52-1.34,3.32,1.5,1.96,1.32-2.09,2.68-3.93,3.98-5.68,1.28-1.76,2.63-3.33,3.87-4.82,1.23-1.49,2.5-2.86,3.73-4.17,1.22-1.32,2.43-2.57,3.65-3.79,1.21-1.22,2.41-2.43,3.6-3.63,1.2-1.19,2.27-2.54,3.37-3.87,1.08-1.35,2.13-2.75,3.13-4.25.5-.75.99-1.52,1.46-2.33.44-.82.86-1.68,1.27-2.56,6.94-2.15,13.14-10.91,18.41-20.59,2.76-4.79,5.16-9.87,7.82-14.39,2.56-4.55,5.2-8.62,8.25-11.52l-2.2-.1c.06-4.54,3.21-3.9,4.97-6.4-1.59-.3-3.58,3.17-3.43.42,6.56-15.95,14.06-31.84,21.53-47.9,7.43-16.06,14.84-32.16,21.05-48.36,4.33-11.85-7.66-9.98,1.64-23.61l2.2,5.4c3.37-25.48,15.52-49.38,19.02-74.17.4,1.66,1.45,2.02.74,4.33,4.11-4.22,5.68-18.47,3.6-19.18,1.35-3.62,2.17-.28,3.93-2.23,3.03-4.56.45-13.59,3.83-15.48.35-.21.43.51.42,1.31.6-4.51,4.4-13.59.87-11.58,4.07-8.46,3.73-17.4,7.6-23.96-1.97-5.62,6.13-14.73,1.84-17.6,4.7,2.09,8.57-14.39,7.96-20.69.91,2.32,2.99-4.42,4.37-1.61,1.84-6.42,2.7-12.56-.14-12.19,9.38-10.02,2.44-25.11,11.95-29.46,3.15-19.74,6.82-37.87,11.05-55.16,2.32,1.09.96,5.78-.31,10.35-1.26,4.58-2.44,9.01.22,9.43,1.51-8.4,1.97-15.19,2.83-21.86.21-1.67.45-3.33.74-5,.29-1.67.62-3.4,1.04-4.98.84-3.25,2.06-6.75,3.82-10.38,2.18-3.63,1.17,3.01,1.52,4.62,1.86-7.93,5.07-15.06,8.43-21.68,1.7-3.3,3.43-6.48,5.09-9.62,1.68-3.1,3.24-6.2,4.69-9.3-1.96.07-1.82-2.85-.99-6.16.84-3.29,2.49-6.85,2.41-8,.74,3.68,3.41,1.51,6,.14.67-.35,1.32-.69,1.92-.87.62-.16,1.18-.2,1.64-.03.94.32,1.43,1.53,1.49,4.06.46-.59.9-1.39,1.1-2.19.19-.81.18-1.51-.4-2.09,2.21-.83,3.12-.35,2.24,2.28.36-.31.69-.62.98-.91.3-.27.57-.49.82-.72.49-.44.87-.92,1.2-1.26.65-.68,1.04-1.3,1.43-1.88.81-.98,1.67-2.1,5.11-2.44.04.56-.27.97-.63,1.4-.36.49-.76,1.02-.95,1.71.33-.33.67-.68,1.03-1.03.37-.28.75-.57,1.16-.85.82-.62,1.75-.98,2.8-1.3.52-.19,1.08-.25,1.67-.27.59-.02,1.2-.05,1.84.01,1.28.26,2.68.54,4.12,1.41-.51.43-.3,1.3-1.35,1.09.43.14.87.28,1.3.4.32.08.63.15.94.23.29.09.58.19.87.28,1.15.36,2.35.56,3.51,1.12.59.24,1.18.43,1.8.69.63.28,1.27.57,1.89.85,1.29.53,2.5,1.22,3.77,1.87,4.97,2.7,9.76,6.62,13.33,13.03-3.24-.2-2.78,1.01-1.96,2.64.82,1.66,2.03,3.78.48,5.29,1.76,1.83,3.47,3.75,5.14,5.74.07-1.25.1-2.47.12-3.71,3.52,5.75,9.13,9.78,10.53,15.84-1.28-1.31-2.57-2.59-3.86-3.85,2.2,3.72,4.31,7.55,6.34,11.44-.53-2.48-1.08-4.96-1.68-7.43,2.51,2.75,3.64,2.03,4.5,1.73.86-.3,1.49-.17,2.89,4.44-.58-.8.12.85.87,3.25.72,2.41,1.46,5.58.99,7.77,0,0,0-.02-.02-.02,2.55,2.78,5.19,5.71,6.03,11.07-.79,1.75-4.75.55-5.29,1.7,4.54,2.04,6.48,15.45,11.42,18.5-1.31-1.13-3.42-.5-3.7.11l3.65,1.89c.19,3.46-.07,4.07-1.92,4.11,2.69,9.73,4.04-4.73,5.66,7.36-.52-.82-.78-.26-1.81-1.98,1.37,5.88,3.57,11.23,5.72,16.51,2.15,5.26,4.24,10.42,5.27,15.89-3.02,4.42-3.95-8.84-6.19-4.18,5.61,14.88,14.95,29.74,18.73,44.69l-.44-2.87c6.34.19.72,11.81,5.79,18.35-1.01-1.68-3.93-1.36-3.14-1.08,2.31,10.32,8.05,20.03,14.7,34.68l-2.05-1.43c.47,6.31,4.23,16,5.87,22.64,2.14,1.4,3.23,5.13,4.52,2.14-.26,5.66.85,10.78,2.71,15.5,1.84,4.72,4.44,9.04,7.15,13.18,2.7,4.15,5.53,8.12,7.94,12.24,2.42,4.14,4.37,8.44,5.56,13.45-1.29-1.9-4.13-3.88-3.15-2.33,3.36,4.38,6.98,8.63,10.96,12.59.55-1.34.52-2,.27-2.84-.24-.84-.76-1.81-.96-3.79,1.21.36,2.79,1.2,4.33,2.34,1.59,1.1,3.16,2.48,4.51,3.89-3.05-1.99-3.8-1.38-3.7.31.14,1.65,1.26,4.29,1.96,5.95.17-.95,1.57-.8,1.94-1.58,1.56,4.66,2.85,3.93,4.36,3.24.77-.34,1.63-.66,2.72-.31,1.14.31,2.44,1.31,4.45,3.5l-1.24.82c2.05.91,4.23,1.35,6.34,1.81,2.15.4,4.22.85,6.4,1.61.56,1.68-.66,1.79-2.17,1.61-.75-.1-1.57-.24-2.28-.23-.69-.02-1.28.13-1.59.67,3.34,1.27,7.16.81,10.47.2,3.37-.59,6.23-1.26,9.37-.15-1.35.61-3.1.92-4.87,1.14-.89.08-1.79.16-2.64.24-.86.04-1.69.11-2.46.23.8.53,1.53.99,2.22,1.38.68.39,1.32.63,1.9.87,1.17.49,2.14.68,3.06.78.46.05.9.08,1.35.1.45-.02.9-.04,1.38-.06.48-.03,1-.06,1.56-.09.56-.05,1.17-.11,1.85-.17l-.54.02c4.24-.2,8.43-1.01,12.44-2.22-1.07.17-2.21.23-3.29.33,1.44-2.65,2.93-4.51,4.6-6.05,1.67-1.52,3.5-2.72,5.4-3.99,3.77-2.51,7.92-5.38,10.13-10.94-1.07,2.69-1.71,4.18-1.86,5.06-.16.86.1,1.04.57.98.94-.12,2.73-1.23,3.54.32,2.82-1.2,6.74-3.57,6.5-2,.48-1.45,1.21-2.47,2.07-3.33.84-.87,1.82-1.58,2.82-2.37,1.97-1.6,4.02-3.57,4.85-7.72,1.09.46,3.6-4.32,5.03-1.68,3.55-5.97-2.5.12-3.23-1.23,1.79-5.26,6.31-9.43,10.87-14.42,4.54-4.97,9.11-10.73,10.66-18.42,4.65-12.07,2.25-15.95,6.28-27,3.43-2.58,1.96,4.73,1.96,4.73,4.47-4.72,6.52-9.09,8.26-14.93.27,1.52,1.57.81,3.53-.2,2.03-4.36-1.99-4.72,2.42-9.52.57,1.53,1.64,3.69,1.62,6.31,1.79-5.47,2.61-11.36,4.47-16.99,2.42-.47.92,4.48,1.04,6.89,2.34-6.21,6.44-15.88,4.7-19.08l-2.16,2.39ZM257.53,327.08c-.47.22-.19-.34.16-.89.13.03.31.02.59-.05.07-.09.17-.21.25-.3-.37.48-.72.93-1,1.24ZM268.79,308.04c.17.03.32.06.42.07-.09,0-.22-.02-.46-.02.02-.02.03-.04.04-.05ZM267.44,307.23c.08.21.27.36.48.49-.59.92-1.29,1.8-1.39,1.67.49-.54.56-1.27.91-2.15ZM126.79,221.93s-.05-.01-.06-.02c-.03-.18-.06-.33-.08-.42.02.09.06.21.14.44ZM126.45,223.47c.17-.16.25-.38.29-.63,1.07.22,2.15.56,2.05.7-.68-.27-1.39-.06-2.34-.07ZM164.43,221.32c1.02.03,2.07-.59,1.04,1.14-.16.05-.27.09-.4.14-.22-.45-.43-.88-.64-1.28ZM168.55,233.17s0-.08,0-.12l.14-.09c-.06.07-.1.14-.14.21ZM168.55,234.58c.05-.07.09-.15.13-.22-.07.15-.11.28-.13.4,0-.06,0-.11,0-.18ZM169.13,231.97c1.01-.89,3.85-3.06,5.32-3.15.01.88-4.04,4.01-5.18,4.25-.19-.08.1-.4.48-.65-.34.06-.73.11-1.22.42-.06-.35-.13-.72-.21-1.1.6-.22.98-.24.83.24ZM167.64,229.24c-.07-.24-.15-.48-.23-.72.27-.21.61-.43,1.07-.67,0,.27-.36.79-.85,1.39ZM145.22,223.83c-.28-.04-.6-.07-1-.1.23,0,.35.16.41.44.08.08.11.16.28.24-.08-.03-.17-.06-.26-.09.03.27.01.61-.03.98-1.48-.69-2.72-1.34-.91-1.31-1.93-.69-3.9-1.42-4.82-1.78,2.91.38,5.01.34,6.88.41-.18.37-.36.77-.54,1.2ZM137.78,243.07l4.64,1.09c.33-1.35,4.71-1.61.92-4.1.38.12.97.3,1.43.49.42.83.89,1.64,1.31,2.48-1.02.62-1.79,1.57-2.29,2.83-2.53-1.06-6.04-2.32-6.02-2.8ZM143.82,238.08c-.29-.08-.6-.16-.95-.24.38.1.68.17.95.21,0,0,0,.02,0,.03ZM143.6,236.54c-.52-.43-1.11-.86-1.57-1.21l1.59.5c-.02.24-.02.48-.02.71ZM146.17,238.98c-.28-.19-.69-.38-1.3-.59l-.12-2.21.29.09c-.11-.05-.19-.08-.29-.13l-.19-3.5c-.54,1.1-.82,2.09-.91,3.01-2.59-1.14-3.48-1.51-4.2-2.49.4-.09,2.05.36,1.8.5,1.22-.3-2.83-1.28-1.07-1.64l1.85.82c.42-.63-.63-.86-2.79-1.84-1.1-.76,1.12-1.11,3.9-.49-1.65-.54-3.78-1.5-2.88-1.7,1.05.22,1.66.53,1.95.69,2.38-.62-3.09-2.65.1-2.68,1.01.24,1.52.32,1.84.33,0,.02,0,.04-.01.06-.3.88-.65,1.55-.85,1.43.31.08.59.14.86.2l3.28,8.55-1.25,1.59ZM158.99,225.02l-1.12-5.38c-3.81-.61-7.74-2.91-10.83.91-.64-.81-1.79-1.69-4.58-2.75-.66-.51,1.75.04,2.69.14.53.33.39.53,1.19.84-1.32-1.01-.09-2.06-4.09-3.2,2.03-.37,3.61,1.36,3.22.08l1.2.45c6.85-.68-8.87-5.85-1.07-6.51-.3.02-.57,0-1.04-.08,4.3-1.96-2.08-6.52,4.33-7.99.67-.26.37-.56-.33-.9.63-.32,2.89-2.1,3.05-1.16l.3-1.33c-.98.76-2.29,1.78-2.77,1.52-.08.09-.13.15-.19.22l-3.46-1.57c-2.57-1.76,8.59-.27,3.59-2.88l-2.28-.28c.54-.44-.97-1.95,1.59-1.32-.4-.14-2.3-.66-1.08-.62l1.75.35-2.71-1.92c.97-.49,3.66.35,5.56.58-.09.11-.26.27-.56.52-.33.24-.53.33-.72.38l1.49-.19c-.91.38-2.85,1.69-2.42,1.06-1.88,2.19,3.85-.3.93,1.76l-.29.07c2.05.44,3.07-1.57,7.08-2.65l-7.05,4.79,3.06-1.58c-.04.19-.13.56-1.35,1.2,2.3-.7,1.26-.82,3.34-1.65-2.4,2.16,2.21.9-2.46,3.77,2.39-1.1,1.41-1.57,3.36-1.86-5,3.13,1.31.22-.71,2.11-2.73,1.37-1.64.04-3.67,1.95,4.64-2.27-.34,1.62.78,1.59,3.54-2.06,2.06.12,3.69.19-1.21.65-1.07,2.59-1.91,4.07l-.6.34c3.62-2,3.39-.87,4.44-.78-2.13,1.27-3.02,1.69-4.14,1.97l.32.5c1.2-.57,1.89-.78,2.49-.7l-2.71,1.49c.56.59,3.9-.55,2.68,1.39,2.48-1.48,6.39-4.91,8.59-5.06-1.3.86-3.54,2.31-4.23,2.41.22-.03,1.27-.42.81.09l-2.45,1.04c-.73.99,1.99-.96,1.98-.53-1.89,1.18-1.2,1.07-2.72,1.96-.23.04.61-.76-.21-.41-.11.56-.96,1.68-2.3,2.72,1.05-.7,2.54-1.6,2.94-1.5.56.57-2.12,1.65-2.83,2.65,1.41-.67.33.61,3.14-1.16.11.2-1.18,1.07-1.89,1.63,1.46-.45,1.39,1.37,4.12-.93l.14-.21c.07-.02.08,0,.16-.02,3.49-.69-.09,3.33,1.82,3.66l-.93.61c1.49-.04,1.58,1.05,3.87.19.12.19-1.39,1.58-2.54,2.23-1.2-2.25-2.3-3.55-2.76-2.63,0,2.38-.89,6.1-2.67,6.33ZM145.79,199.42l3.12.51c-.27.32-.42.52-.48.62-.71-.33-1.76-.71-2.65-1.14ZM206.13,607.67c-.51-1.68-.94-3.11-1.21-4.03.27.84.63,1.99,1.27,4.01-.03,0-.05.01-.06.02ZM210.61,624.18c-.43-2.04-1.08-4.55-1.82-7.19.9-.86,2.16-.52,2.55,1.15-.95-.71-.51,3.34-.73,6.04ZM221.46,583.38c-.13-.05-.3-.17-.45-.21.65.1,1.27.25,1.8.64,1.1,2.49.72,3.51.18,4.03-.37-1.21-.84-2.62-1.53-4.45Z" style="fill:#222;"/><path d="M217.59,580.14c-.16-.36-.35-.53-.5-1.02-.13.6-.24,1.16-.3,1.72.41.24.81.48,1.2.68-.14-.47-.28-.95-.41-1.39Z" style="fill:#222;"/><path d="M936.29,647.45c.03-.05.04-.12.06-.17-.02.05-.04.1-.06.17Z" style="fill:#222;"/><path d="M936.49,646.6c-.02.25-.06.48-.14.68.06-.13.13-.18.18-.32l-.04-.36Z" style="fill:#222;"/><polygon points="276.34 851.55 277.08 851.23 275.88 850.07 276.34 851.55" style="fill:#222;"/><path d="M971.14,736.92c.09-.19-.12-.81-.4-1.52-.05.33.01.81.4,1.52Z" style="fill:#222;"/><path d="M1019.69,750.38c-.74.08-1.43.16-2.08.23-.65.05-1.25.1-1.82.15-.56.06-1.07.11-1.56.16-.49.03-.95.06-1.38.09,1.15,0,2.28-.09,3.42-.2,1.16-.08,2.27-.26,3.4-.44Z" style="fill:#222;"/><path d="M1044.25,735.97c-.04-.7-.23-1.09-.4-1.45-.03,0-.04.02-.07.02l.47,1.43Z" style="fill:#222;"/><path d="M783.38,436.22c-.19.32-.37.65-.48.98-.89,2.44-.14.88.48-.98Z" style="fill:#222;"/><path d="M870.33,476.81c-1.11-1.22-2.19-2.42-3.14-3.76.77,2.47,1.43,4.36,3.14,3.76Z" style="fill:#222;"/><path d="M733.05,588.36s-.03,0-.05-.03c-.09.34-.19.63-.29.97l.34-.94Z" style="fill:#222;"/><path d="M867.18,473.05c-.6-2.04-1.29-4.45-2.58-6.2.45,2.61,1.42,4.52,2.58,6.2Z" style="fill:#222;"/><path d="M1121.18,619.97c-.2-.08-.31-.23-.37-.4l-.45,1.67.82-1.27Z" style="fill:#222;"/><path d="M1120.81,619.58l.45-1.65c-.36.68-.65,1.28-.45,1.65Z" style="fill:#222;"/><path d="M1121.26,617.92c.57-1.07,1.36-2.36.93-3.49l-.93,3.49Z" style="fill:#222;"/><path d="M1099.48,657.06l.78.97c-.08-.34-.33-.67-.78-.97Z" style="fill:#222;"/><path d="M1093.76,668.19c1.66-2.58,5.72-5.32,7.12-9.38l-.61-.78c.54,2.6-6.86,6.67-6.5,10.16Z" style="fill:#222;"/><path d="M1060.69,697.19c-2.04.79-4.71,1.75-2.3-2.23-5.17,4.2-4.27,3.99-3.04,4.17.61.08,1.3.22,1.31,1,.01.78-.63,2.24-2.77,4.82,2.32-2.52,4.59-5.11,6.8-7.77Z" style="fill:#222;"/><path d="M1031.38,726.32c3.63-3.75-1.18-1.3-1.39-2.05-.89,1.45-1.47,2.33-1.37,2.67.11.35.92.2,2.76-.62Z" style="fill:#222;"/><path d="M916.39,576.19l2.92-.35c-1.73-4.02-1.07.31-2.92.35Z" style="fill:#222;"/><polygon points="888.39 537.99 887.99 542.58 891.12 543.67 888.39 537.99" style="fill:#222;"/><polygon points="900.53 507.93 897.23 501.34 899.54 506.25 900.53 507.93" style="fill:#222;"/><path d="M693.3,624.33l3.78-.25c.23-3-3.42-4.73-3.78.25Z" style="fill:#222;"/><path d="M646.81,788.38c-2.28,1.19-4.85,5.33-4.17,8.67,1.48-3.52,3.97-6.69,4.17-8.67Z" style="fill:#222;"/><polygon points="322.91 884.19 319.27 879.01 320.38 881.73 322.91 884.19" style="fill:#222;"/><path d="M64.67,382.37c.8.56,2.76,1.56,2.52,1.08l-3.18-1.97.65.89Z" style="fill:#222;"/><path d="M64.56,379.38c2.99,2.01,1.63,1.38,5.21,3.74.24.48-1.3-.1-2.49-.8.79.55-.94.03,1.04,1.29,2.72,1.03,3.06.63,1.21-.96.77.29,1.58.85,2.17,1.2-1.42-1.18-4.03-3.05-7.15-4.47Z" style="fill:#222;"/><path d="M90.58,359.76l-.48-.02c.24.06.39.06.48.02Z" style="fill:#222;"/><path d="M100.41,343.7c.02.17.33.37.64.52-.17-.22-.33-.41-.64-.52Z" style="fill:#222;"/><path d="M105.49,342.47c-.14.01-.21.05-.31.07.34.07.55.09.31-.07Z" style="fill:#222;"/><path d="M90.58,359.76l1.27.06c-1.08-.56-.92-.16-1.27-.06Z" style="fill:#222;"/><path d="M65.71,375.98c.11.18.38.41.74.7-.1-.15-.18-.29-.23-.41-.17-.1-.32-.18-.51-.29Z" style="fill:#222;"/><path d="M89.65,368.51l-.06.14c.36.23.8.5,1.3.79l-1.23-.93Z" style="fill:#222;"/><path d="M83.47,372.21c1.12.67,1.63,1.04,1.79,1.27.54.28,1.19.59,2.03.96.19-.07-2.61-1.55-3.82-2.23Z" style="fill:#222;"/><path d="M77.7,380.76l.3.36c-.1-.1-.17-.23-.3-.36Z" style="fill:#222;"/><path d="M92.29,364.75c.43.2.81.36,1.04.45-.36-.18-.71-.32-1.04-.45Z" style="fill:#222;"/><path d="M127.17,192.23c.23.05.36.08.55.12-.31-.1-.52-.16-.55-.12Z" style="fill:#222;"/><path d="M144.02,188.37l.15.13c.59.13,1.17.25,1.73.37l-1.88-.51Z" style="fill:#222;"/><path d="M111.58,338.71s-.04,0-.07,0c.27.29.25.18.07,0Z" style="fill:#222;"/><path d="M122.99,285.04c1.2.33,4.38,2.43,6.37,2.32-2.87-.36-3.1-2.15-6.37-2.32Z" style="fill:#222;"/><path d="M66.15,376.03c0-.09.02-.18.09-.24-.14.05-.17.13-.09.24Z" style="fill:#222;"/><path d="M113.86,325.02c.3.12.68.24,1.33.41-.53-.19-.94-.3-1.33-.41Z" style="fill:#222;"/><path d="M107.09,332.97l.49-.06c-.3-.02-.43,0-.49.06Z" style="fill:#222;"/><path d="M113.36,318.87c.19,0,.32-.01.1-.24-.15-.04-.27-.07-.38-.09.28.17.43.29.28.33Z" style="fill:#222;"/><path d="M113.08,318.88c.14.01.23,0,.28,0-.09,0-.19,0-.28,0Z" style="fill:#222;"/><path d="M115.09,313.81c-.24-.06-.42-.1-.63-.14.04.07.06.15.09.22l.53-.08Z" style="fill:#222;"/><path d="M125.14,208.19c.89.09,1.87.25,2.83.42-2.21-.44-2.82-1.38-2.83-.42Z" style="fill:#222;"/><path d="M66.15,376.03c0,.07.03.15.07.24.41.23.8.45,1.06.54-.69-.4-1.02-.63-1.13-.78Z" style="fill:#222;"/><path d="M90.03,309.23l.76-.59c-.37.1-.64.32-.76.59Z" style="fill:#222;"/><path d="M115.81,244.89l-.31-.29c-.09.05-.02.14.31.29Z" style="fill:#222;"/><path d="M91.26,306.15c1.09.28,1.75.37,2.2.38-.22-.12-.39-.24-.72-.4l-1.48.02Z" style="fill:#222;"/><path d="M87.58,330.57s0-.06,0-.08c-.01.03-.01.05,0,.08Z" style="fill:#222;"/><path d="M105.98,332.16c-.28-.18-.45-.31-.58-.42.22.23.14.36.58.42Z" style="fill:#222;"/><path d="M110.43,338.83c-.01-.1-.07-.2-.15-.29,0,.08.05.18.15.29Z" style="fill:#222;"/><path d="M70.37,381.55l-.28-.04c.17.07.29.1.28.04Z" style="fill:#222;"/><path d="M145.61,209.59c.14,0,.28-.02.45-.04-.17,0-.3.02-.45.04Z" style="fill:#222;"/><path d="M92.58,302.45c.05.05.13.13.22.2-.06-.06-.12-.13-.22-.2Z" style="fill:#222;"/><path d="M113.7,247c-.11-.08-.23-.15-.36-.23.15.09.25.16.36.23Z" style="fill:#222;"/><path d="M105.41,331.73s0,0,0,0c0,0,0,0,0,0Z" style="fill:#222;"/><path d="M128.3,197.64s.04-.02.05-.03c-.04,0-.05.01-.05.03Z" style="fill:#222;"/><path d="M141.23,233.66c-.05.01-.1.03-.17.04.09,0,.14-.02.17-.04Z" style="fill:#222;"/><path d="M113.85,247.1s-.1-.07-.15-.11c.05.04.1.07.15.11Z" style="fill:#222;"/><path d="M143.7,223.99c.32.11.64.23.94.33,0-.05,0-.1-.01-.15-.06-.05-.18-.11-.2-.16-.28-.02-.53-.03-.73-.03Z" style="fill:#222;"/><path d="M90.1,359.75c-.13-.03-.25-.06-.44-.13.18.07.23.08.36.13h.08Z" style="fill:#222;"/><polygon points="114.8 242.78 115.57 243 114.93 242.67 114.8 242.78" style="fill:#222;"/><path d="M76.38,362.81c-.26-.11-.53-.21-.78-.26.19.09.47.17.78.26Z" style="fill:#222;"/><path d="M74.04,365.85l-1.25-.04c.68.09,1.02.07,1.25.04Z" style="fill:#222;"/><path d="M71.34,367.71c.48.29.84.49,1.18.67h.02s-1.21-.67-1.21-.67Z" style="fill:#222;"/><path d="M87.57,324.72s-.02-.09-.09-.16c-.46-.48-.31-.22.09.16Z" style="fill:#222;"/><path d="M88.76,340.22c-.46-.37-.91-.74-1.18-1.02-.32.12-.46.27,1.18,1.02Z" style="fill:#222;"/><path d="M89.94,309.29s.02,0,.05.02c0-.03.02-.06.04-.09l-.09.06Z" style="fill:#222;"/><path d="M87.91,338.64c-.68-.04-.64.2-.32.56.28-.09.67-.17.32-.56Z" style="fill:#222;"/><path d="M64.24,378.11l-.18.06c.19.1.33.18.44.26l-.26-.32Z" style="fill:#222;"/><path d="M64.5,378.43l.26.31c.03-.06.04-.13-.26-.31Z" style="fill:#222;"/><path d="M65.31,379.41l-.55-.66c-.06.1-.21.17.55.66Z" style="fill:#222;"/><path d="M66.33,374.85c.2.13.52.32,1,.58l-1-.58Z" style="fill:#222;"/><path d="M66.33,374.85c-1.42-.96,2.84.53,1.25-.6-.36.12-2.49-.53-2.04.14l.79.46Z" style="fill:#222;"/><path d="M82.45,376.51l-1.28.46c1.17.41,2.73.97,2.78,1.51,3.83.57-2.54-1.03-1.51-1.96Z" style="fill:#222;"/><path d="M87.61,375.72c-.84-.81-1.05-1.02-2.19-1.15.26.74,1.58.81,2.19,1.15Z" style="fill:#222;"/><path d="M95.33,354.58l2.58,1.28c-.19-.55-1.01-.48-2.58-1.28Z" style="fill:#222;"/><polygon points="83.64 344.41 81.85 344.01 84.17 345.3 83.64 344.41" style="fill:#222;"/><polygon points="103.3 350.8 103.6 351.14 102.94 350.07 103.3 350.8" style="fill:#222;"/><path d="M113.99,314.55c.49.5,4.17,2.04,3.34,1.21l-3.34-1.21Z" style="fill:#222;"/><path d="M121.25,298.86c-.36.26-1.78.11-1.42.44,1.72.46,2.95.43,1.42-.44Z" style="fill:#222;"/><polygon points="141.95 255.61 141.18 254.73 140.9 254.95 141.95 255.61" style="fill:#222;"/><path d="M157.54,181.33l-1.1.06c-.91.35-2.83,1.44-2.3,1.5l3.4-1.55Z" style="fill:#222;"/><path d="M158.99,182.91c-3.33,1.38-2.05.61-6,2.28-.53-.06.8-1.03,2.04-1.63-.9.35.5-.79-1.65.16-2.36,1.69-2.22,2.2.14,1.53-.67.48-1.58.85-2.2,1.15,1.77-.53,4.77-1.68,7.68-3.49Z" style="fill:#222;"/><path d="M161.87,214.93c-.18.18-.25.31-.27.4l.27-.4Z" style="fill:#222;"/><path d="M169.74,232.41c.28-.03.52-.08.77-.29-.16-.06-.49.1-.77.29Z" style="fill:#222;"/><path d="M169.07,237.17c.05-.13.06-.2.09-.3-.23.26-.34.43-.09.3Z" style="fill:#222;"/><path d="M161.6,215.34l-.71,1.06c1.04-.63.62-.71.71-1.06Z" style="fill:#222;"/><path d="M161.2,185.7c-.21,0-.55.09-.99.24.18,0,.34,0,.46.03.18-.09.33-.17.52-.27Z" style="fill:#222;"/><path d="M154.59,209.9l-.08-.13c-.38.18-.84.41-1.36.68l1.44-.55Z" style="fill:#222;"/><path d="M154.73,202.64c-1.16.59-1.76.82-2.03.83-.52.3-1.13.69-1.9,1.19-.04.19,2.71-1.37,3.93-2.03Z" style="fill:#222;"/><path d="M150.62,193.11l-.47.06c.14-.02.29-.02.47-.06Z" style="fill:#222;"/><path d="M156.43,214.17c-.39.26-.73.5-.93.65.34-.21.64-.43.93-.65Z" style="fill:#222;"/><path d="M295.91,318.77c.19-.26.32-.44.29-.48-.12.2-.19.32-.29.48Z" style="fill:#222;"/><path d="M294.45,335.49l-.17.1c-.31.52-.6,1.03-.9,1.53l1.07-1.63Z" style="fill:#222;"/><path d="M169.43,244.39s.02-.03.03-.06c-.38.09-.28.12-.03.06Z" style="fill:#222;"/><path d="M207.5,284.5c1.56-2.44,3.28-1.87,4.83-4.75-.81.94-4.08,2.9-4.83,4.75Z" style="fill:#222;"/><path d="M161.06,186.24c.03-.15-.01-.21-.15-.2.07.06.14.12.15.2Z" style="fill:#222;"/><path d="M179.49,254.16c.42-.37.71-.68.99-.98-.25.21-.54.48-.99.98Z" style="fill:#222;"/><path d="M176.65,243.32l-.18.46c.17-.26.2-.38.18-.46Z" style="fill:#222;"/><path d="M186.17,255.7c.04-.08.09-.17.13-.25-.08.12-.11.2-.13.25Z" style="fill:#222;"/><path d="M186.17,255.7c-.09.17-.14.29.17.2.11-.12.19-.2.26-.29-.28.17-.46.24-.43.09Z" style="fill:#222;"/><path d="M189.9,259.63c.16-.18.28-.33.42-.49-.08,0-.16-.01-.24-.02l-.17.51Z" style="fill:#222;"/><path d="M280.69,313.76c1.17-1.93,2.25-2.18,1.36-2.51-.39.81-.87,1.67-1.36,2.51Z" style="fill:#222;"/><path d="M160.91,186.04c-.06-.04-.14-.06-.23-.07-.42.21-.81.42-1.04.59.72-.36,1.08-.51,1.27-.52Z" style="fill:#222;"/><path d="M205.61,239.6l.16.94c.09-.37.03-.71-.16-.94Z" style="fill:#222;"/><path d="M251.8,289.53l.39-.17c-.01-.1-.12-.07-.39.17Z" style="fill:#222;"/><path d="M207.72,242.07c-.75.83-1.15,1.37-1.36,1.77.21-.13.39-.24.68-.46l.68-1.31Z" style="fill:#222;"/><path d="M188.28,227.46s.05.02.07.03c-.02-.02-.04-.03-.07-.03Z" style="fill:#222;"/><path d="M250.55,286.91s.1-.06.15-.1c-.05.03-.1.06-.15.1Z" style="fill:#222;"/><path d="M153.99,186.55l.19-.21c-.15.1-.24.19-.19.21Z" style="fill:#222;"/><path d="M210.07,245c.08-.02.17-.05.28-.11-.07.02-.17.06-.28.11Z" style="fill:#222;"/><path d="M169.87,243.32c.09.04.21.04.33.01-.08-.03-.18-.05-.33-.01Z" style="fill:#222;"/><path d="M178.57,242.44s-.02,0-.02,0c0,0,.02,0,.02,0Z" style="fill:#222;"/><path d="M177.9,242.75c.29-.16.49-.24.65-.29-.3.08-.38-.06-.65.29Z" style="fill:#222;"/><path d="M250.7,286.81c.12-.08.24-.16.36-.25-.14.1-.25.17-.36.25Z" style="fill:#222;"/><path d="M273.78,330.04c-.04.13-.07.26-.11.41.04-.15.07-.28.11-.41Z" style="fill:#222;"/><path d="M290.78,317.66s0,.04,0,.06c.01-.04,0-.06,0-.06Z" style="fill:#222;"/><path d="M260.3,323.95c.07-.03.16-.13.22-.13.12-.26.21-.48.28-.67-.22.26-.44.52-.65.76.05.01.09.03.14.04Z" style="fill:#222;"/><path d="M162.21,214.63c-.15.12-.19.15-.3.24l-.04.07c.09-.09.18-.18.34-.3Z" style="fill:#222;"/><polygon points="254.12 289.4 253.62 290.02 254.16 289.56 254.12 289.4" style="fill:#222;"/><path d="M166.45,201.65c.23-.16.46-.34.63-.52-.18.11-.4.31-.63.52Z" style="fill:#222;"/><path d="M165.14,198.07l.7-1.03c-.43.52-.61.82-.7,1.03Z" style="fill:#222;"/><path d="M165.02,194.82c-.5.25-.86.45-1.2.64l-.02.02,1.22-.65Z" style="fill:#222;"/><path d="M193.34,230.25s.09.03.18,0c.64-.17.34-.16-.18,0Z" style="fill:#222;"/><path d="M179.35,223.76c.55-.21,1.09-.42,1.47-.51.06-.34,0-.53-1.47.51Z" style="fill:#222;"/><path d="M205.59,239.5s-.02.01-.04.03c.03.02.04.05.06.07v-.11Z" style="fill:#222;"/><path d="M181.14,223.8c.37-.57.15-.65-.32-.55-.06.29-.19.67.32.55Z" style="fill:#222;"/><path d="M160.28,183.15c-.18.1-.34.17-.46.23l.41-.04.05-.18Z" style="fill:#222;"/><path d="M159.82,183.38l-.4.04c.03.06.08.1.4-.04Z" style="fill:#222;"/><path d="M159.42,183.42c-.05-.1-.03-.27-.86.1l.86-.1Z" style="fill:#222;"/><path d="M161.79,186.82c-.22.1-.55.26-1.03.52l1.03-.52Z" style="fill:#222;"/><path d="M161.61,188.19c.1-.37,1.81-1.79,1-1.78l-.82.41c1.58-.67-2,2.08-.18,1.36Z" style="fill:#222;"/><path d="M151.68,203.02c-.77-.18-1.53.9-2.14,1.23,1.14-.27,1.43-.34,2.14-1.23Z" style="fill:#222;"/><polygon points="178.34 217.26 179.59 215.93 177.31 217.27 178.34 217.26" style="fill:#222;"/><path d="M187.12,260.71l2.62-2.4c-.67.2-3.74,2.75-2.62,2.4Z" style="fill:#222;"/><path d="M200.79,270.56c-1.18,1.34-1.69,2.46-.23,1.48-.07-.44.69-1.65.23-1.48Z" style="fill:#222;"/><polygon points="232.86 309.08 232.75 308.74 231.73 309.45 232.86 309.08" style="fill:#222;"/></svg>